<svg height="12" viewBox="0 0 12 12" width="12" xmlns="http://www.w3.org/2000/svg">
  <path fill="#FFFFFF" d="m4.50586 9.44238c.97852 0 1.88086-.3164 2.61914-.84375l2.77734 2.77737c.12886.1289.29886.1933.48046.1933.3809 0 .6504-.2929.6504-.6679 0-.1758-.0586-.3399-.1875-.4688l-2.75976-2.76561c.58008-.76172.92578-1.70508.92578-2.73047 0-2.47851-2.02734-4.505856-4.50586-4.505856-2.47266 0-4.50586 2.021486-4.50586 4.505856 0 2.47852 2.02734 4.50586 4.50586 4.50586zm0-.97265c-1.93359 0-3.533204-1.59961-3.533204-3.53321 0-1.93359 1.599614-3.5332 3.533204-3.5332s3.5332 1.59961 3.5332 3.5332c0 1.9336-1.59961 3.53321-3.5332 3.53321z"/>
</svg>
