<svg xmlns="http://www.w3.org/2000/svg" width="17" height="17" viewBox="0 0 17 17">
  <path fill="#FFFFFFFF" fill-rule="evenodd" d="M9.79 4.045H.99a.8.8 0 0 1 0-1.6h8.8a1.6 1.6 0 0 1 1.6-1.6h1.6a1.6 1.6 0 0 1 1.6 1.6h.8a.8.8 0 0 1 0 1.6h-.8a1.6 1.6 0 0 1-1.6 1.6h-1.6a1.6 1.6 0 0 1-1.6-1.6Zm3.2-1.6h-1.6v1.6h1.6v-1.6Zm2.4 5.6h-7.2a1.6 1.6 0 0 0-1.6-1.6h-1.6a1.6 1.6 0 0 0-1.6 1.6H.99a.8.8 0 1 0 0 1.6h2.4a1.6 1.6 0 0 0 1.6 1.6h1.6a1.6 1.6 0 0 0 1.6-1.6h7.2a.8.8 0 0 0 0-1.6Zm-8.8 0h-1.6v1.6h1.6v-1.6Zm8.8 5.6h-2.4a1.6 1.6 0 0 0-1.6-1.6h-1.6a1.6 1.6 0 0 0-1.6 1.6H.99a.8.8 0 0 0 0 1.6h7.2a1.6 1.6 0 0 0 1.6 1.6h1.6a1.6 1.6 0 0 0 1.6-1.6h2.4a.8.8 0 0 0 0-1.6Zm-4 0h-1.6v1.6h1.6v-1.6Z" clip-rule="evenodd"/>
</svg>
